<?xml version="1.0" standalone="no"?>
<!DOCTYPE svg PUBLIC "-//W3C//DTD SVG 20010904//EN"
 "http://www.w3.org/TR/2001/REC-SVG-20010904/DTD/svg10.dtd">
<svg version="1.0" xmlns="http://www.w3.org/2000/svg"
 width="500.000000pt" height="500.000000pt" viewBox="0 0 500.000000 500.000000"
 preserveAspectRatio="xMidYMid meet">
<metadata>
Created by potrace 1.14, written by Peter Selinger 2001-2017
</metadata>
<g transform="translate(0.000000,500.000000) scale(0.100000,-0.100000)"
fill="#000000" stroke="none">
<path d="M2510 3575 c553 -553 1007 -1005 1010 -1005 3 0 5 452 5 1005 l0
1005 -1010 0 -1010 0 1005 -1005z"/>
<path d="M1477 4533 c-3 -5 -5 -457 -5 -1006 l0 -997 51 -1 c221 -2 1959 0
1962 3 2 1 -448 454 -1000 1006 -552 551 -1006 999 -1008 995z"/>
<path d="M1481 2480 c-8 -6 -9 -2010 -1 -2010 10 0 2015 2010 2005 2011 -46 4
-1999 3 -2004 -1z"/>
</g>
</svg>
